<mxfile host="app.diagrams.net" agent="Mozilla/5.0 (Windows NT 10.0; Win64; x64) AppleWebKit/537.36 (KHTML, like Gecko) Chrome/129.0.0.0 Safari/537.36" version="24.7.16">
  <diagram name="Page-1" id="55a83fd1-7818-8e21-69c5-c3457e3827bb">
    <mxGraphModel grid="1" page="1" gridSize="10" guides="1" tooltips="1" connect="1" arrows="1" fold="1" pageScale="1" pageWidth="1100" pageHeight="850" background="none" math="0" shadow="0">
      <root>
        <mxCell id="0" />
        <mxCell id="1" parent="0" />
        <mxCell id="69ecfefc5c41e42c-18" style="edgeStyle=none;rounded=0;html=1;labelBackgroundColor=none;endArrow=none;strokeWidth=2;fontFamily=Verdana;fontSize=22" edge="1" parent="1" source="69ecfefc5c41e42c-1" target="69ecfefc5c41e42c-3">
          <mxGeometry relative="1" as="geometry" />
        </mxCell>
        <mxCell id="69ecfefc5c41e42c-1" value="" style="image;html=1;labelBackgroundColor=#ffffff;image=img/lib/clip_art/networking/Wireless_Router_128x128.png;rounded=1;shadow=0;comic=0;strokeWidth=2;fontSize=22" vertex="1" parent="1">
          <mxGeometry x="390" y="140" width="80" height="80" as="geometry" />
        </mxCell>
        <mxCell id="69ecfefc5c41e42c-2" value="Internet" style="image;html=1;labelBackgroundColor=#ffffff;image=img/lib/clip_art/networking/Cloud_128x128.png;rounded=1;shadow=0;comic=0;strokeWidth=2;fontSize=22;labelPosition=center;verticalLabelPosition=top;align=center;verticalAlign=bottom;" vertex="1" parent="1">
          <mxGeometry x="720" y="140" width="80" height="80" as="geometry" />
        </mxCell>
        <mxCell id="69ecfefc5c41e42c-19" style="edgeStyle=none;rounded=0;html=1;labelBackgroundColor=none;endArrow=none;strokeWidth=2;fontFamily=Verdana;fontSize=22" edge="1" parent="1" source="69ecfefc5c41e42c-3" target="69ecfefc5c41e42c-2">
          <mxGeometry relative="1" as="geometry" />
        </mxCell>
        <mxCell id="69ecfefc5c41e42c-3" value="Firewall" style="image;html=1;labelBackgroundColor=#ffffff;image=img/lib/clip_art/networking/Firewall_128x128.png;rounded=1;shadow=0;comic=0;strokeWidth=2;fontSize=22;labelPosition=right;verticalLabelPosition=middle;align=left;verticalAlign=middle;" vertex="1" parent="1">
          <mxGeometry x="540" y="140" width="80" height="80" as="geometry" />
        </mxCell>
        <mxCell id="l41xSmW3BuPzmJahMr_8-13" style="edgeStyle=orthogonalEdgeStyle;rounded=0;orthogonalLoop=1;jettySize=auto;html=1;exitX=0;exitY=0.5;exitDx=0;exitDy=0;entryX=0.5;entryY=0;entryDx=0;entryDy=0;" edge="1" parent="1" source="69ecfefc5c41e42c-5" target="l41xSmW3BuPzmJahMr_8-8">
          <mxGeometry relative="1" as="geometry" />
        </mxCell>
        <mxCell id="69ecfefc5c41e42c-5" value="PC" style="image;html=1;labelBackgroundColor=#ffffff;image=img/lib/clip_art/computers/Monitor_Tower_128x128.png;rounded=1;shadow=0;comic=0;strokeWidth=2;fontSize=22" vertex="1" parent="1">
          <mxGeometry x="140" y="140" width="80" height="80" as="geometry" />
        </mxCell>
        <mxCell id="69ecfefc5c41e42c-12" value="" style="html=1;fillColor=#CCCCCC;strokeColor=#6881B3;gradientColor=none;gradientDirection=north;strokeWidth=2;shape=mxgraph.networks.comm_link_edge;html=1;labelBackgroundColor=none;endArrow=none;fontFamily=Verdana;fontSize=22;fontColor=#000000;fontStyle=1" edge="1" parent="1" source="69ecfefc5c41e42c-5" target="69ecfefc5c41e42c-1">
          <mxGeometry width="100" height="100" relative="1" as="geometry">
            <mxPoint x="320" y="481.9565217391305" as="sourcePoint" />
            <mxPoint x="470" y="508.0434782608695" as="targetPoint" />
          </mxGeometry>
        </mxCell>
        <mxCell id="l41xSmW3BuPzmJahMr_8-14" style="edgeStyle=orthogonalEdgeStyle;rounded=0;orthogonalLoop=1;jettySize=auto;html=1;" edge="1" parent="1" source="l41xSmW3BuPzmJahMr_8-6" target="69ecfefc5c41e42c-3">
          <mxGeometry relative="1" as="geometry" />
        </mxCell>
        <mxCell id="l41xSmW3BuPzmJahMr_8-16" style="edgeStyle=orthogonalEdgeStyle;rounded=0;orthogonalLoop=1;jettySize=auto;html=1;" edge="1" parent="1" source="l41xSmW3BuPzmJahMr_8-6" target="l41xSmW3BuPzmJahMr_8-15">
          <mxGeometry relative="1" as="geometry">
            <Array as="points">
              <mxPoint x="123" y="-107" />
              <mxPoint x="-230" y="-107" />
            </Array>
          </mxGeometry>
        </mxCell>
        <mxCell id="l41xSmW3BuPzmJahMr_8-6" value="" style="fontColor=#0066CC;verticalAlign=top;verticalLabelPosition=bottom;labelPosition=center;align=center;html=1;outlineConnect=0;fillColor=#CCCCCC;strokeColor=#6881B3;gradientColor=none;gradientDirection=north;strokeWidth=2;shape=mxgraph.networks.web_server;" vertex="1" parent="1">
          <mxGeometry x="70" y="-20" width="105" height="105" as="geometry" />
        </mxCell>
        <mxCell id="l41xSmW3BuPzmJahMr_8-8" value="" style="image;html=1;image=img/lib/clip_art/people/Worker_Black_128x128.png" vertex="1" parent="1">
          <mxGeometry x="10" y="220" width="80" height="80" as="geometry" />
        </mxCell>
        <mxCell id="l41xSmW3BuPzmJahMr_8-36" style="edgeStyle=orthogonalEdgeStyle;rounded=0;orthogonalLoop=1;jettySize=auto;html=1;" edge="1" parent="1" source="l41xSmW3BuPzmJahMr_8-15" target="l41xSmW3BuPzmJahMr_8-32">
          <mxGeometry relative="1" as="geometry" />
        </mxCell>
        <mxCell id="l41xSmW3BuPzmJahMr_8-15" value="" style="image;html=1;image=img/lib/clip_art/computers/Database_128x128.png" vertex="1" parent="1">
          <mxGeometry x="-270" y="-70" width="80" height="80" as="geometry" />
        </mxCell>
        <mxCell id="l41xSmW3BuPzmJahMr_8-17" value="" style="shape=ext;double=1;whiteSpace=wrap;html=1;aspect=fixed;" vertex="1" parent="1">
          <mxGeometry x="290" y="355" width="260" height="260" as="geometry" />
        </mxCell>
        <mxCell id="l41xSmW3BuPzmJahMr_8-18" value="" style="shape=ext;double=1;whiteSpace=wrap;html=1;aspect=fixed;" vertex="1" parent="1">
          <mxGeometry x="290" y="355" width="30" height="30" as="geometry" />
        </mxCell>
        <mxCell id="l41xSmW3BuPzmJahMr_8-19" value="" style="shape=ext;double=1;whiteSpace=wrap;html=1;aspect=fixed;" vertex="1" parent="1">
          <mxGeometry x="320" y="355" width="30" height="30" as="geometry" />
        </mxCell>
        <mxCell id="l41xSmW3BuPzmJahMr_8-20" value="" style="shape=ext;double=1;whiteSpace=wrap;html=1;aspect=fixed;" vertex="1" parent="1">
          <mxGeometry x="350" y="355" width="30" height="30" as="geometry" />
        </mxCell>
        <mxCell id="l41xSmW3BuPzmJahMr_8-22" value="" style="shape=ext;double=1;rounded=0;whiteSpace=wrap;html=1;" vertex="1" parent="1">
          <mxGeometry x="380" y="355" width="170" height="30" as="geometry" />
        </mxCell>
        <mxCell id="l41xSmW3BuPzmJahMr_8-24" value="INICIO" style="text;html=1;align=center;verticalAlign=middle;whiteSpace=wrap;rounded=0;fontSize=37;" vertex="1" parent="1">
          <mxGeometry x="332.5" y="445" width="175" height="100" as="geometry" />
        </mxCell>
        <mxCell id="l41xSmW3BuPzmJahMr_8-31" style="edgeStyle=orthogonalEdgeStyle;rounded=0;orthogonalLoop=1;jettySize=auto;html=1;" edge="1" parent="1" source="l41xSmW3BuPzmJahMr_8-26" target="l41xSmW3BuPzmJahMr_8-15">
          <mxGeometry relative="1" as="geometry">
            <Array as="points">
              <mxPoint x="-110" y="510" />
              <mxPoint x="-230" y="510" />
            </Array>
          </mxGeometry>
        </mxCell>
        <mxCell id="l41xSmW3BuPzmJahMr_8-26" value="" style="shape=ext;double=1;rounded=0;whiteSpace=wrap;html=1;" vertex="1" parent="1">
          <mxGeometry x="50" y="470" width="170" height="30" as="geometry" />
        </mxCell>
        <mxCell id="l41xSmW3BuPzmJahMr_8-28" value="" style="endArrow=none;html=1;rounded=0;" edge="1" parent="1" source="l41xSmW3BuPzmJahMr_8-26" target="l41xSmW3BuPzmJahMr_8-17">
          <mxGeometry width="50" height="50" relative="1" as="geometry">
            <mxPoint x="520" y="430" as="sourcePoint" />
            <mxPoint x="570" y="380" as="targetPoint" />
          </mxGeometry>
        </mxCell>
        <mxCell id="l41xSmW3BuPzmJahMr_8-30" style="edgeStyle=orthogonalEdgeStyle;rounded=0;orthogonalLoop=1;jettySize=auto;html=1;" edge="1" parent="1" source="l41xSmW3BuPzmJahMr_8-17" target="7OqMRzYu6q5cEAxkUgTM-1">
          <mxGeometry relative="1" as="geometry">
            <mxPoint x="620" y="485" as="targetPoint" />
          </mxGeometry>
        </mxCell>
        <mxCell id="l41xSmW3BuPzmJahMr_8-32" value="Resultados" style="swimlane;fontStyle=0;childLayout=stackLayout;horizontal=1;startSize=26;fillColor=none;horizontalStack=0;resizeParent=1;resizeParentMax=0;resizeLast=0;collapsible=1;marginBottom=0;html=1;" vertex="1" parent="1">
          <mxGeometry x="-180" y="20" width="140" height="104" as="geometry" />
        </mxCell>
        <mxCell id="l41xSmW3BuPzmJahMr_8-33" value="Item 1" style="text;strokeColor=none;fillColor=none;align=left;verticalAlign=top;spacingLeft=4;spacingRight=4;overflow=hidden;rotatable=0;points=[[0,0.5],[1,0.5]];portConstraint=eastwest;whiteSpace=wrap;html=1;" vertex="1" parent="l41xSmW3BuPzmJahMr_8-32">
          <mxGeometry y="26" width="140" height="26" as="geometry" />
        </mxCell>
        <mxCell id="l41xSmW3BuPzmJahMr_8-34" value="Item 2" style="text;strokeColor=none;fillColor=none;align=left;verticalAlign=top;spacingLeft=4;spacingRight=4;overflow=hidden;rotatable=0;points=[[0,0.5],[1,0.5]];portConstraint=eastwest;whiteSpace=wrap;html=1;" vertex="1" parent="l41xSmW3BuPzmJahMr_8-32">
          <mxGeometry y="52" width="140" height="26" as="geometry" />
        </mxCell>
        <mxCell id="l41xSmW3BuPzmJahMr_8-35" value="Item 3" style="text;strokeColor=none;fillColor=none;align=left;verticalAlign=top;spacingLeft=4;spacingRight=4;overflow=hidden;rotatable=0;points=[[0,0.5],[1,0.5]];portConstraint=eastwest;whiteSpace=wrap;html=1;" vertex="1" parent="l41xSmW3BuPzmJahMr_8-32">
          <mxGeometry y="78" width="140" height="26" as="geometry" />
        </mxCell>
        <mxCell id="l41xSmW3BuPzmJahMr_8-37" value="" style="endArrow=none;dashed=1;html=1;rounded=0;" edge="1" parent="1" source="l41xSmW3BuPzmJahMr_8-26" target="l41xSmW3BuPzmJahMr_8-8">
          <mxGeometry width="50" height="50" relative="1" as="geometry">
            <mxPoint x="-40" y="560" as="sourcePoint" />
            <mxPoint x="10" y="510" as="targetPoint" />
            <Array as="points">
              <mxPoint x="135" y="370" />
              <mxPoint x="50" y="370" />
            </Array>
          </mxGeometry>
        </mxCell>
        <mxCell id="l41xSmW3BuPzmJahMr_8-38" value="" style="endArrow=none;dashed=1;html=1;rounded=0;" edge="1" parent="1" source="l41xSmW3BuPzmJahMr_8-8" target="l41xSmW3BuPzmJahMr_8-32">
          <mxGeometry width="50" height="50" relative="1" as="geometry">
            <mxPoint x="140" y="70" as="sourcePoint" />
            <mxPoint x="190" y="20" as="targetPoint" />
            <Array as="points">
              <mxPoint x="-110" y="260" />
            </Array>
          </mxGeometry>
        </mxCell>
        <mxCell id="l41xSmW3BuPzmJahMr_8-39" value="" style="ellipse;shape=doubleEllipse;whiteSpace=wrap;html=1;aspect=fixed;" vertex="1" parent="1">
          <mxGeometry x="170" y="485" width="30" height="30" as="geometry" />
        </mxCell>
        <mxCell id="l41xSmW3BuPzmJahMr_8-40" value="" style="endArrow=none;html=1;rounded=0;" edge="1" parent="1">
          <mxGeometry width="50" height="50" relative="1" as="geometry">
            <mxPoint x="150" y="540" as="sourcePoint" />
            <mxPoint x="180" y="510" as="targetPoint" />
          </mxGeometry>
        </mxCell>
        <mxCell id="7OqMRzYu6q5cEAxkUgTM-1" value="" style="shape=image;html=1;verticalAlign=top;verticalLabelPosition=bottom;labelBackgroundColor=#ffffff;imageAspect=0;aspect=fixed;image=https://cdn2.iconfinder.com/data/icons/circle-icons-1/64/email-128.png" vertex="1" parent="1">
          <mxGeometry x="370" y="252" width="48" height="48" as="geometry" />
        </mxCell>
      </root>
    </mxGraphModel>
  </diagram>
</mxfile>
